<?xml version="1.0" standalone="no"?>
<!DOCTYPE svg PUBLIC "-//W3C//DTD SVG 20010904//EN"
 "http://www.w3.org/TR/2001/REC-SVG-20010904/DTD/svg10.dtd">
<svg version="1.0" xmlns="http://www.w3.org/2000/svg"
 width="350.000000pt" height="350.000000pt" viewBox="0 0 350.000000 350.000000"
 preserveAspectRatio="xMidYMid meet">

<g transform="translate(0.000000,350.000000) scale(0.100000,-0.100000)"
fill="#000000" stroke="none">
<path d="M293 2418 c3 -1052 3 -1075 24 -1166 72 -312 196 -536 428 -768 242
-243 526 -397 855 -464 122 -25 173 -25 299 -1 567 110 1062 533 1237 1058 71
213 67 133 71 1331 l4 1082 -1461 0 -1461 0 4 -1072z m2854 -35 c-3 -971 -4
-1064 -21 -1133 -63 -268 -184 -491 -373 -690 -237 -249 -530 -414 -853 -480
-156 -32 -140 -53 -140 184 l0 203 38 7 c20 3 52 6 70 6 45 0 212 34 292 60
105 34 279 124 365 189 44 34 81 65 83 71 2 5 -6 22 -18 37 l-21 27 33 12 c47
16 155 72 162 83 4 5 -15 40 -40 77 -59 84 -54 101 29 96 37 -2 65 2 87 13 17
9 46 15 63 13 27 -2 32 0 29 17 -2 11 -10 26 -17 34 -11 12 -11 18 2 37 10 16
12 28 5 40 -6 11 -7 27 -1 42 6 16 6 29 -1 37 -13 16 -3 25 30 25 16 0 43 14
67 35 23 19 50 35 61 35 32 0 34 15 7 44 -19 20 -23 34 -19 52 4 17 1 31 -11
44 -10 11 -15 26 -11 35 8 22 -11 55 -32 55 -10 0 -23 5 -29 11 -9 9 -6 16 11
30 13 10 31 38 40 63 10 26 26 48 37 51 28 9 23 22 -14 34 -22 8 -36 21 -44
41 -6 17 -18 30 -26 30 -7 0 -19 11 -25 25 -6 14 -16 25 -22 25 -6 0 -5 9 4
23 7 12 17 36 20 52 4 17 17 38 29 47 19 15 20 19 7 28 -8 5 -25 10 -37 10
-15 0 -23 7 -25 23 -2 12 -13 26 -25 32 -13 5 -23 13 -23 17 0 4 -9 15 -19 25
-16 15 -18 25 -11 62 4 25 16 51 26 58 16 12 17 15 4 23 -8 5 -25 10 -37 10
-13 0 -24 8 -28 19 -3 11 -16 23 -28 27 -12 4 -28 16 -36 26 -9 13 -21 18 -37
15 -20 -3 -22 -2 -13 15 5 10 9 40 8 66 0 26 2 58 6 71 8 23 7 24 -28 18 -27
-4 -39 -2 -45 9 -5 8 -19 16 -33 17 -57 5 -101 80 -77 133 14 31 9 36 -30 25
-23 -7 -34 -6 -43 5 -6 8 -24 14 -40 14 -15 0 -31 5 -34 10 -3 6 -14 10 -24
10 -14 0 -20 10 -25 44 -4 24 -4 56 0 70 7 29 -11 35 -46 16 -13 -7 -21 -6
-30 5 -7 8 -25 15 -41 15 -15 0 -31 5 -34 10 -9 14 -42 12 -52 -2 -4 -7 -21
-20 -38 -28 -17 -9 -31 -25 -33 -38 -2 -12 -7 -22 -12 -22 -13 0 -40 -30 -40
-45 0 -7 6 -20 14 -28 8 -8 16 -27 18 -43 2 -18 11 -33 26 -39 12 -5 22 -17
22 -25 0 -28 21 -42 39 -26 23 20 81 9 81 -15 0 -11 7 -22 15 -25 10 -4 13
-13 10 -25 -4 -12 3 -27 19 -44 14 -14 26 -32 26 -39 0 -8 6 -19 14 -25 11
-10 16 -9 24 5 13 23 72 10 72 -16 0 -10 5 -22 10 -25 6 -3 10 -19 10 -35 0
-19 7 -33 20 -40 11 -6 20 -19 20 -28 0 -28 21 -44 34 -27 7 9 20 12 33 9 24
-7 34 -41 26 -90 -3 -18 0 -34 6 -38 6 -4 11 -18 11 -31 0 -43 9 -56 31 -42
15 9 21 9 33 -3 17 -19 28 -77 16 -85 -13 -8 -13 -52 0 -60 6 -3 7 -17 4 -31
-9 -36 2 -60 21 -44 12 10 20 7 45 -13 19 -16 26 -28 19 -33 -6 -3 -9 -19 -7
-35 3 -17 -1 -34 -9 -40 -15 -13 -17 -45 -4 -53 5 -3 6 -26 3 -52 -5 -45 -4
-46 16 -33 18 11 24 10 41 -5 28 -25 26 -50 -4 -70 -16 -11 -25 -26 -25 -42 0
-14 -9 -37 -20 -51 -25 -32 -25 -43 0 -43 13 0 24 -10 30 -26 13 -33 14 -31
-15 -38 -13 -3 -29 -15 -35 -26 -6 -11 -19 -20 -28 -20 -22 0 -42 -19 -42 -39
0 -9 -10 -21 -23 -26 -19 -10 -16 1 28 90 78 156 82 173 61 259 -85 330 -226
587 -440 802 -132 131 -245 213 -408 295 l-98 49 0 95 c0 52 2 95 5 95 3 0 27
-16 54 -35 42 -30 71 -43 71 -32 0 2 -9 30 -20 62 -11 32 -20 64 -20 70 0 7
25 31 55 54 30 23 55 46 55 51 0 5 -35 10 -77 12 l-77 3 -23 70 c-12 39 -22
87 -22 108 l-1 37 695 0 696 0 -4 -1057z m-1369 876 l19 -54 68 -3 68 -3 -52
-36 c-28 -20 -51 -41 -51 -47 0 -6 7 -33 15 -60 8 -27 14 -51 12 -52 -2 -2
-25 12 -51 31 -27 19 -54 31 -60 28 -6 -4 -29 -20 -50 -35 -22 -15 -41 -27
-43 -25 -2 2 6 29 16 60 l20 56 -52 38 -52 38 64 5 64 5 20 58 c10 32 21 56
23 54 2 -2 12 -28 22 -58z m-509 -240 c-12 -17 -65 -59 -119 -94 -53 -34 -111
-80 -128 -101 l-33 -39 16 43 c26 77 67 142 103 164 27 17 138 53 175 57 5 1
-2 -13 -14 -30z m926 11 c4 -6 16 -8 26 -5 20 7 49 -9 49 -26 0 -5 -11 -7 -25
-3 -22 5 -25 3 -25 -20 0 -23 -4 -26 -36 -26 -35 0 -36 -1 -30 -30 5 -27 3
-30 -19 -30 -32 0 -37 -11 -20 -43 11 -22 11 -26 -1 -31 -29 -11 -46 5 -42 40
3 24 0 34 -9 34 -8 0 -16 7 -19 15 -8 19 15 48 32 41 8 -3 14 6 16 27 3 28 7
32 31 32 19 -1 27 4 27 17 0 20 34 25 45 8z m129 -72 c9 -81 8 -86 -21 -100
-16 -7 -29 -22 -31 -33 -4 -32 -55 -56 -93 -45 -21 6 -37 6 -45 -1 -21 -17
-25 7 -4 26 19 17 19 20 5 42 -9 12 -12 23 -8 24 5 1 17 2 28 3 16 1 19 7 17
29 -3 25 0 27 33 27 31 0 35 3 35 25 0 22 3 24 19 15 27 -14 31 -13 31 8 0 19
8 32 20 32 4 0 10 -24 14 -52z m-910 -60 c-45 -91 -110 -145 -194 -163 -19 -4
-52 -16 -72 -26 -30 -16 -20 -3 52 67 105 101 140 129 195 155 22 10 41 19 43
19 1 0 -9 -24 -24 -52z m-224 -18 c0 -22 -31 -83 -60 -120 -17 -21 -55 -54
-84 -74 -30 -20 -64 -48 -76 -63 -12 -16 3 19 32 77 48 94 59 108 113 147 63
44 75 50 75 33z m-251 -95 c-10 -74 -21 -104 -68 -180 -22 -35 -35 -85 -23
-85 5 0 14 18 21 40 6 22 23 52 36 67 l24 28 1 -82 c0 -78 -1 -83 -35 -125
-19 -24 -46 -67 -59 -95 -14 -29 -27 -53 -29 -53 -2 0 5 26 16 58 18 52 18 66
8 172 -10 98 -9 123 4 167 14 47 101 181 111 171 2 -3 -1 -40 -7 -83z m1456
75 c4 -6 16 -8 26 -5 11 4 27 1 36 -6 14 -12 13 -14 -8 -19 -15 -4 -25 -14
-27 -29 -3 -17 -9 -22 -22 -18 -28 7 -54 -16 -47 -42 4 -17 2 -21 -9 -17 -37
14 -61 -33 -31 -63 10 -10 6 -12 -18 -9 -26 3 -30 7 -29 33 0 17 -6 35 -14 41
-20 15 -11 48 15 52 14 2 20 8 16 18 -8 20 15 44 43 44 15 0 24 6 24 15 0 17
35 21 45 5z m130 -146 c-3 -14 -15 -24 -34 -27 -17 -4 -32 -14 -36 -26 -9 -31
-53 -54 -88 -47 -17 3 -36 1 -43 -5 -11 -9 -14 -8 -14 5 0 9 7 19 15 22 19 8
19 28 0 44 -21 17 -9 31 21 24 22 -6 24 -3 24 30 0 34 1 36 32 34 29 -3 33 0
39 27 5 24 7 27 13 13 11 -24 36 -23 36 1 0 11 6 21 13 24 13 4 30 -83 22
-119z m-658 65 c385 -202 634 -501 779 -933 64 -193 65 -213 18 -322 -97 -227
-238 -394 -444 -526 l-75 -48 -388 0 c-443 0 -402 -7 -543 98 -182 136 -327
330 -399 538 l-18 50 37 129 c109 383 313 686 598 888 95 68 293 177 320 177
10 0 61 -23 115 -51z m713 -93 c6 -8 18 -12 26 -9 8 3 22 -1 30 -8 15 -12 14
-14 -7 -19 -13 -3 -26 -15 -29 -25 -3 -14 -14 -20 -35 -20 -25 0 -30 -4 -33
-28 -2 -15 -9 -27 -15 -26 -34 4 -47 -2 -47 -24 0 -13 5 -28 12 -35 9 -9 6
-12 -14 -12 -30 0 -43 23 -28 50 13 25 13 30 -4 30 -8 0 -17 4 -20 9 -11 18 6
41 31 41 13 0 21 4 18 10 -3 5 -1 19 5 31 9 15 19 20 36 16 17 -3 25 1 29 14
7 23 28 25 45 5z m-1404 -54 c-28 -35 -68 -71 -103 -91 -32 -19 -76 -51 -97
-70 l-40 -36 30 35 c16 20 47 66 68 103 43 73 66 93 123 106 65 15 66 13 19
-47z m-86 44 c0 -2 -8 -10 -17 -17 -16 -13 -17 -12 -4 4 13 16 21 21 21 13z
m1610 -87 c0 -65 -12 -99 -35 -99 -8 0 -23 -8 -33 -17 -27 -27 -75 -41 -101
-31 -14 5 -28 4 -36 -2 -6 -5 -15 -7 -19 -3 -4 4 3 15 16 25 20 15 21 20 11
37 -20 32 -16 41 17 35 28 -6 30 -5 30 25 0 29 2 31 35 31 31 0 35 3 35 28 1
24 2 25 14 10 17 -24 32 -23 39 2 11 43 27 19 27 -41z m-1939 -91 c-6 -28 -25
-81 -41 -118 -30 -69 -37 -130 -24 -199 12 -57 21 -32 16 47 l-4 77 38 48 c39
47 39 47 42 20 8 -62 -11 -135 -58 -230 -27 -55 -47 -85 -44 -68 3 17 -2 74
-10 127 -31 193 -20 271 56 371 l33 44 3 -34 c2 -19 -2 -57 -7 -85z m1994 -37
c3 -11 16 -21 27 -23 12 -2 23 -9 26 -16 2 -8 -2 -10 -13 -5 -12 4 -23 -2 -35
-17 -14 -19 -20 -21 -38 -11 -29 16 -31 15 -47 -21 -8 -18 -14 -27 -15 -20 0
18 -47 15 -54 -4 -3 -8 -1 -24 4 -35 13 -23 -6 -26 -35 -5 -18 13 -18 14 -1
41 14 21 15 29 6 35 -22 13 -7 45 21 43 17 -1 28 6 35 20 7 17 17 21 41 20 18
-2 35 2 38 7 10 17 33 11 40 -9z m-1774 -69 c-17 -33 -50 -80 -74 -105 -24
-24 -58 -65 -76 -91 -18 -25 -34 -46 -37 -46 -6 0 -1 9 33 59 12 18 26 56 29
85 5 37 14 57 33 73 40 35 116 90 119 88 2 -2 -10 -30 -27 -63z m1819 -18 c0
-19 19 -18 26 1 4 8 13 15 21 15 11 0 13 -5 8 -17 -4 -10 -11 -34 -15 -54 -10
-52 -18 -61 -49 -54 -19 4 -35 0 -52 -14 -30 -24 -67 -29 -96 -13 -12 7 -29
12 -37 12 -23 0 -19 17 5 23 18 5 21 11 16 36 -7 32 8 42 30 20 14 -14 33 -3
33 20 0 26 9 31 39 20 22 -9 28 -7 40 10 14 22 31 19 31 -5z m-2194 -198 c6
-62 3 -79 -20 -135 -14 -36 -26 -78 -27 -95 -1 -31 -1 -30 -22 14 -16 33 -22
64 -22 120 0 65 5 85 34 145 31 65 34 68 42 46 5 -13 12 -56 15 -95z m2192 62
c8 -8 15 -8 26 2 19 15 46 6 46 -15 0 -8 6 -15 14 -15 20 0 46 -28 46 -48 -1
-15 -2 -15 -11 1 -13 23 -36 22 -51 -2 -11 -17 -15 -18 -38 -6 -30 16 -44 10
-54 -23 -7 -20 -9 -21 -23 -7 -25 25 -48 14 -48 -23 0 -37 -27 -45 -44 -13 -8
14 -6 25 10 45 11 14 16 26 10 26 -6 0 -11 11 -11 24 0 25 31 41 48 24 5 -5
15 1 26 16 18 28 35 33 54 14z m-1878 -34 c0 -22 -65 -137 -88 -154 -65 -50
-122 -90 -122 -85 0 19 54 118 81 150 50 57 129 111 129 89z m1990 -70 c0 -18
14 -18 30 0 6 8 18 12 26 9 13 -5 13 -7 0 -22 -8 -9 -18 -29 -22 -46 -10 -45
-42 -75 -80 -75 -18 0 -39 -6 -47 -14 -18 -19 -53 -10 -91 21 -16 13 -35 22
-42 19 -8 -3 -14 1 -14 9 0 9 10 15 25 15 22 0 25 4 25 35 0 35 16 47 26 20
10 -25 31 -17 43 16 l10 30 32 -18 c31 -18 31 -18 46 4 16 24 33 22 33 -3z
m-2231 -166 c8 -33 6 -61 -6 -113 -8 -39 -18 -85 -20 -104 -5 -33 -7 -32 -38
45 -17 43 -28 81 -24 84 5 3 8 23 7 43 -1 21 9 59 22 88 24 50 24 50 37 26 7
-14 17 -44 22 -69z m2201 7 c9 -11 16 -13 24 -5 18 18 44 11 50 -14 3 -13 15
-26 26 -29 11 -3 20 -13 20 -22 0 -14 -3 -15 -14 -6 -12 10 -19 8 -34 -7 -18
-18 -21 -18 -46 -3 -26 15 -28 15 -46 -7 -16 -19 -23 -21 -40 -12 -28 15 -53
-5 -47 -37 5 -25 -11 -31 -31 -11 -18 18 -14 45 8 61 18 12 18 16 6 26 -30 25
9 60 45 41 15 -8 19 -7 19 4 0 13 25 35 41 36 4 0 12 -7 19 -15z m-2389 -47
c19 -38 21 -54 17 -155 -5 -95 -3 -118 14 -154 l19 -43 -22 20 c-12 10 -34 45
-51 78 -39 78 -48 173 -22 245 10 28 19 51 21 51 1 0 12 -19 24 -42z m294 -45
c-4 -32 -21 -92 -38 -133 l-31 -75 -8 40 c-10 60 -9 124 3 148 10 19 67 76 78
77 2 0 0 -26 -4 -57z m2202 -43 c4 0 14 7 24 16 31 28 37 6 13 -43 -13 -25
-31 -54 -40 -64 -18 -20 -83 -31 -102 -16 -7 5 -27 7 -45 4 -26 -4 -36 -1 -45
14 -7 10 -22 19 -33 19 -12 0 -19 5 -17 12 3 7 15 13 29 13 21 0 24 4 21 33
-4 36 12 43 34 15 13 -17 15 -17 29 1 8 10 16 24 18 30 3 8 10 7 23 -2 37 -24
45 -25 62 -1 l17 24 3 -27 c2 -16 6 -28 9 -28z m-2393 -128 c37 -61 41 -80 38
-170 l-2 -54 -24 29 c-38 46 -76 123 -76 156 0 26 19 97 26 97 2 0 19 -26 38
-58z m2285 -9 c8 -15 12 -16 22 -5 20 19 60 15 66 -8 4 -14 14 -20 35 -20 28
0 30 -2 26 -30 -3 -18 1 -35 9 -41 15 -13 17 -55 3 -64 -6 -3 -10 4 -10 16 0
19 -4 21 -34 16 -28 -5 -35 -2 -45 19 -12 27 -42 32 -61 9 -11 -14 -14 -13
-24 7 -15 29 -48 30 -61 1 -12 -28 -21 -29 -35 -3 -15 28 4 60 35 60 18 0 23
4 19 15 -15 39 34 64 55 28z m-2222 -30 c-3 -10 -5 -4 -5 12 0 17 2 24 5 18 2
-7 2 -21 0 -30z m-104 -152 c14 -25 28 -61 32 -80 l7 -34 -50 42 c-52 44 -77
89 -86 155 l-5 39 38 -37 c22 -21 50 -59 64 -85z m2297 69 c0 -27 18 -35 39
-16 25 23 40 20 53 -10 7 -16 18 -24 27 -21 50 14 51 14 35 -27 -7 -17 -4 -18
23 -13 21 4 35 1 43 -8 10 -12 9 -15 -7 -15 -10 0 -34 -16 -53 -35 -44 -46
-107 -57 -146 -26 -15 12 -35 21 -44 21 -11 0 -22 13 -30 33 -25 68 -30 77
-40 77 -5 0 -10 5 -10 11 0 7 12 9 34 5 31 -6 35 -4 45 24 11 33 31 33 31 0z
m-2089 -93 c35 -58 59 -147 41 -147 -16 0 -71 66 -87 104 -16 38 -14 106 3
106 4 0 23 -28 43 -63z m-43 -106 c12 -7 33 -34 47 -62 l26 -50 -43 22 c-24
12 -56 31 -72 42 -29 21 -65 87 -66 122 0 16 8 12 43 -22 23 -22 52 -46 65
-52z m-116 -10 c25 -18 61 -53 78 -78 36 -49 83 -83 117 -83 17 0 21 4 16 17
-6 14 -2 13 21 -5 36 -28 44 -28 56 1 8 20 9 19 9 -11 1 -24 12 -44 42 -77 23
-25 37 -45 31 -45 -5 0 -22 16 -37 36 -37 48 -96 73 -192 80 -94 8 -140 30
-183 90 -25 35 -70 139 -70 163 0 2 15 -9 33 -25 17 -17 53 -46 79 -63z m2178
49 c8 -15 17 -19 31 -15 24 8 49 -11 49 -36 0 -12 7 -19 19 -19 26 0 34 -15
21 -39 -7 -13 -7 -22 0 -26 14 -9 12 -41 -3 -54 -11 -8 -13 -6 -13 12 1 18 -5
23 -31 25 -24 2 -33 8 -33 21 0 27 -25 45 -47 33 -14 -9 -20 -5 -30 19 -14 34
-26 36 -53 9 -25 -25 -26 -25 -33 0 -8 31 15 54 47 46 19 -5 26 -3 21 4 -11
18 3 40 24 40 11 0 25 -9 31 -20z m-50 -107 c0 -26 7 -27 51 -9 12 5 18 -1 25
-26 8 -28 14 -33 37 -30 26 3 37 -11 17 -23 -18 -11 -10 -24 17 -27 32 -4 44
-28 13 -28 -11 0 -35 -7 -52 -16 -22 -11 -46 -15 -78 -11 -34 4 -54 1 -69 -10
-12 -8 -25 -12 -28 -9 -4 4 -19 -6 -35 -21 -21 -20 -28 -23 -28 -11 0 9 14 30
32 47 30 29 31 33 20 64 -7 19 -12 50 -12 69 0 20 -6 38 -12 41 -7 2 -10 8 -5
12 4 5 18 2 32 -5 23 -12 27 -12 41 8 19 27 34 20 34 -15z m-145 -3 c-3 -5 3
-10 14 -10 17 0 21 -6 21 -32 0 -17 5 -47 12 -65 11 -30 10 -35 -10 -49 -13
-8 -30 -32 -40 -52 -16 -35 -23 -38 -102 -60 -162 -44 -170 -52 -145 -135 18
-62 23 -58 -110 -122 -106 -52 -254 -92 -377 -103 l-88 -8 0 128 0 128 201 0
200 0 84 55 c102 68 228 185 292 271 26 35 49 64 51 64 2 0 0 -4 -3 -10z m163
-356 c-9 -8 -149 -74 -170 -79 -20 -5 -29 1 -57 39 -28 40 -35 45 -52 36 -25
-14 -121 -9 -126 6 -8 23 28 42 119 64 101 25 172 52 183 70 4 6 27 -18 56
-61 27 -39 48 -73 47 -75z m-1897 112 c30 -14 93 -35 141 -47 98 -24 124 -38
115 -63 -5 -12 -19 -16 -57 -16 -28 0 -59 4 -69 10 -15 7 -24 1 -50 -35 -18
-25 -37 -45 -43 -45 -20 0 -178 79 -178 89 0 8 80 131 86 131 1 0 26 -11 55
-24z m192 -190 c187 -139 428 -216 681 -216 261 0 499 75 684 215 40 30 75 55
77 55 2 0 26 -30 55 -66 61 -77 63 -72 -57 -154 -142 -99 -302 -165 -494 -207
-131 -28 -411 -25 -548 5 -132 30 -222 62 -335 120 -115 59 -250 158 -239 175
15 25 95 127 100 127 2 0 36 -24 76 -54z m55 20 l-11 -35 -35 27 -36 27 45 6
c24 3 45 7 46 7 0 1 -4 -13 -9 -32z m1305 -6 c-38 -29 -38 -29 -45 -7 -11 40
-9 42 37 39 l46 -4 -38 -28z"/>
<path d="M1680 2754 c-98 -46 -249 -147 -332 -223 -179 -165 -310 -396 -394
-697 -41 -150 -41 -194 1 -339 37 -126 78 -205 155 -293 l66 -77 289 -70 290
-71 280 69 c278 69 280 70 323 111 96 91 157 200 198 352 36 135 34 184 -10
333 -85 289 -182 465 -351 637 -115 117 -212 187 -360 262 l-81 40 -74 -34z
m371 -159 c242 -181 403 -448 499 -825 20 -77 21 -92 10 -155 -31 -179 -93
-313 -196 -422 l-49 -53 -280 -69 -280 -70 -279 68 -278 69 -50 48 c-99 98
-153 205 -194 383 l-23 105 25 98 c86 340 231 598 432 771 76 66 203 148 292
191 l73 35 106 -54 c58 -30 145 -84 192 -120z"/>
<path d="M1728 2693 c-6 -15 -58 -74 -114 -130 -174 -173 -267 -340 -299 -535
-8 -51 -17 -105 -20 -120 -4 -25 0 -28 53 -43 31 -9 80 -24 107 -32 39 -12
104 -16 307 -16 165 0 262 3 270 10 7 6 33 14 58 18 25 4 50 11 55 15 6 4 31
13 58 21 26 7 47 17 47 21 0 4 7 8 17 8 9 0 13 3 10 7 -6 6 -27 -2 -79 -28
-39 -20 -45 -11 -57 79 -27 197 -74 323 -176 472 -56 83 -200 265 -216 276 -5
3 -14 -8 -21 -23z"/>
<path d="M1056 1948 l-38 -10 3 -259 4 -259 26 -26 c15 -14 51 -34 80 -44 52
-18 54 -20 57 -59 3 -36 7 -42 48 -62 57 -27 120 -23 216 16 l67 27 68 -57
c37 -31 89 -74 115 -96 26 -21 49 -39 51 -39 3 0 14 15 25 34 11 18 45 50 76
71 31 20 67 51 80 68 l24 31 82 -33 c111 -44 164 -49 223 -23 45 20 47 23 47
61 0 39 0 39 56 57 30 9 68 29 85 45 l29 27 2 241 c1 133 2 249 2 258 1 21
-58 41 -120 42 -31 1 -46 -5 -60 -21 -19 -23 -19 -23 2 -5 22 18 74 24 74 7 0
-5 -11 -10 -24 -10 -14 0 -28 -5 -31 -10 -6 -9 -50 -32 -120 -60 -19 -8 -68
-21 -90 -25 -5 0 -17 -4 -25 -7 -40 -17 -127 -27 -236 -27 -65 0 -163 -1 -218
-1 -95 -1 -199 14 -222 32 -6 5 -18 6 -27 2 -8 -3 -18 -1 -22 5 -3 6 -17 11
-30 11 -13 0 -27 5 -30 10 -3 6 -17 10 -31 10 -13 0 -24 4 -24 9 0 5 -12 12
-27 16 -16 3 -36 14 -45 22 -17 15 -64 14 -125 -3 -14 -4 -23 -2 -23 4 0 24
142 44 155 22 3 -6 24 -19 46 -30 29 -13 37 -15 29 -4 -7 7 -17 14 -22 14 -5
0 -21 9 -35 20 -28 22 -82 25 -147 8z m1397 -14 c28 -6 38 -24 13 -24 -24 0
-76 22 -76 32 0 5 8 7 18 4 9 -3 29 -8 45 -12z m-1333 -29 c0 -8 7 -15 15 -15
12 0 15 -13 14 -62 -1 -35 -4 -49 -6 -33 -7 49 -23 54 -23 7 0 -31 4 -42 15
-42 11 0 15 -14 17 -57 l2 -58 3 53 c2 28 8 52 14 52 5 0 9 16 9 35 0 19 -4
35 -10 35 -5 0 -10 14 -10 30 0 20 5 30 15 30 12 0 14 -20 14 -117 -1 -113
-15 -246 -18 -165 -1 45 -21 40 -23 -5 -1 -37 -1 -37 -5 -5 -6 46 -23 40 -23
-9 0 -35 3 -40 18 -34 9 4 42 11 72 17 56 11 56 11 52 44 -5 43 -20 44 -25 2
-2 -18 -5 2 -5 45 -2 77 -2 77 24 77 l27 0 -7 -75 c-8 -86 -16 -81 106 -66 40
5 107 12 148 15 70 5 73 4 45 -9 -16 -8 -47 -14 -67 -15 -62 0 -194 -23 -175
-29 9 -4 31 -35 47 -69 l29 -63 -25 -9 c-33 -13 -34 -13 -34 4 0 22 -37 44
-113 67 -37 12 -67 23 -65 25 2 1 35 12 73 23 39 11 63 20 54 20 -9 1 -47 -8
-84 -20 -61 -19 -68 -19 -91 -4 -24 15 -24 15 -24 205 0 120 4 190 10 190 6 0
10 -7 10 -15z m1277 -283 c-1 -53 -3 -7 -3 103 0 110 2 154 3 97 2 -57 2 -147
0 -200z m-1307 107 c0 -178 -6 -207 -31 -142 -5 13 -13 21 -19 18 -7 -4 -10
46 -10 144 0 134 2 150 18 154 43 11 42 15 42 -174z m1358 15 c2 -150 1 -162
-18 -179 l-20 -18 0 182 c0 168 1 182 18 179 15 -3 17 -20 20 -164z m19 -71
c-1 -43 -3 -8 -3 77 0 85 2 120 3 78 2 -43 2 -113 0 -155z m-87 187 c0 -16 -4
-30 -10 -30 -5 0 -10 -16 -10 -35 0 -19 5 -35 10 -35 6 0 10 -30 10 -70 0 -38
-4 -70 -9 -70 -6 0 -12 -15 -14 -32 -2 -18 -4 42 -5 135 -1 140 1 167 13 167
10 0 15 -10 15 -30z m-41 -2 c0 -13 -4 -41 -8 -63 -8 -37 -12 -39 -15 -8 -2
26 -21 17 -27 -12 -5 -21 -7 -12 -8 33 -1 60 0 63 20 57 15 -5 19 -4 15 4 -4
6 0 11 8 11 10 0 16 -9 15 -22z m-1120 -50 c-1 -60 -2 -61 -10 -23 -11 55 -11
85 1 85 6 0 10 -27 9 -62z m30 -10 c-1 -60 -2 -61 -10 -23 -11 55 -11 85 1 85
6 0 10 -27 9 -62z m1020 40 c0 -13 -4 -41 -8 -63 -8 -38 -9 -37 -10 23 -1 35
3 62 9 62 6 0 10 -10 9 -22z m-990 -45 c-1 -48 -3 -53 -9 -28 -11 45 -11 85 0
85 6 0 9 -25 9 -57z m961 30 c0 -16 -5 -35 -10 -43 -7 -11 -10 -4 -10 28 0 23
5 42 10 42 6 0 10 -12 10 -27z m-931 -40 c-1 -48 -3 -53 -9 -28 -11 45 -11 85
0 85 6 0 9 -25 9 -57z m901 26 c0 -23 -4 -30 -14 -26 -11 4 -16 -3 -19 -26 -2
-21 -4 -14 -5 21 -1 33 2 51 8 47 6 -3 10 -1 10 4 0 6 5 11 10 11 6 0 10 -14
10 -31z m-870 -9 c0 -16 -4 -30 -10 -30 -5 0 -10 14 -10 30 0 17 5 30 10 30 6
0 10 -13 10 -30z m17 -47 c-2 -16 -4 -5 -4 22 0 28 2 40 4 28 2 -13 2 -35 0
-50z m770 -66 c-2 -23 -3 -1 -3 48 0 50 1 68 3 42 2 -26 2 -67 0 -90z m33 108
c0 -14 -4 -25 -10 -25 -5 0 -10 11 -10 25 0 14 5 25 10 25 6 0 10 -11 10 -25z
m-783 -37 c-2 -13 -4 -5 -4 17 -1 22 1 32 4 23 2 -10 2 -28 0 -40z m37 46 c10
-4 16 -17 15 -38 l-1 -31 -8 30 c-4 17 -8 22 -9 13 -2 -28 -21 -21 -21 7 0 27
1 28 24 19z m693 -61 c-2 -16 -4 -5 -4 22 0 28 2 40 4 28 2 -13 2 -35 0 -50z
m-660 -5 c-2 -13 -4 -3 -4 22 0 25 2 35 4 23 2 -13 2 -33 0 -45z m640 0 c-2
-13 -4 -3 -4 22 0 25 2 35 4 23 2 -13 2 -33 0 -45z m-620 0 c-2 -13 -4 -5 -4
17 -1 22 1 32 4 23 2 -10 2 -28 0 -40z m580 20 c-3 -7 -5 -2 -5 12 0 14 2 19
5 13 2 -7 2 -19 0 -25z m20 0 c-3 -7 -5 -2 -5 12 0 14 2 19 5 13 2 -7 2 -19 0
-25z m-576 -19 c-9 -23 -10 -22 -10 11 -1 23 2 31 9 24 7 -7 7 -19 1 -35z
m157 8 c3 -23 8 -27 33 -27 26 0 29 3 30 33 1 30 1 31 9 7 7 -21 8 -22 9 -5 1
14 8 20 26 20 18 0 25 -6 26 -20 1 -17 2 -16 9 5 8 24 8 23 9 -7 1 -26 5 -33
21 -33 15 0 20 7 21 28 l1 27 8 -30 8 -30 1 33 c1 25 5 32 21 32 27 0 29 -49
3 -51 -12 -1 -10 -3 6 -8 14 -4 26 -12 29 -19 3 -9 -36 -12 -162 -12 -141 0
-166 2 -166 15 0 8 5 15 10 15 6 0 10 14 10 31 0 24 4 30 18 27 10 -2 18 -14
20 -31z m19 -4 c-3 -10 -5 -4 -5 12 0 17 2 24 5 18 2 -7 2 -21 0 -30z m154 -6
c-8 -8 -11 -5 -11 9 0 27 14 41 18 19 2 -9 -1 -22 -7 -28z m186 -4 c-3 -10 -5
-2 -5 17 0 19 2 27 5 18 2 -10 2 -26 0 -35z m20 25 c-3 -8 -6 -5 -6 6 -1 11 2
17 5 13 3 -3 4 -12 1 -19z m-490 -25 c-3 -10 -5 -4 -5 12 0 17 2 24 5 18 2 -7
2 -21 0 -30z m160 15 c-3 -8 -6 -5 -6 6 -1 11 2 17 5 13 3 -3 4 -12 1 -19z
m260 0 c-3 -8 -6 -5 -6 6 -1 11 2 17 5 13 3 -3 4 -12 1 -19z m30 -15 c-3 -10
-5 -4 -5 12 0 17 2 24 5 18 2 -7 2 -21 0 -30z m352 -45 c-1 -35 -5 -76 -9 -93
l-8 -30 -1 33 c0 17 -5 32 -11 32 -5 0 -11 -15 -11 -32 -1 -29 -3 -27 -10 12
-4 25 -8 64 -8 87 -1 43 -2 42 52 52 4 0 6 -27 6 -61z m-1119 5 c0 -27 -5 -55
-10 -63 -7 -11 -10 3 -10 48 0 35 4 62 10 62 6 0 10 -21 10 -47z m1020 -8 c0
-25 -4 -45 -10 -45 -5 0 -10 20 -10 45 0 25 5 45 10 45 6 0 10 -20 10 -45z
m29 -32 c-1 -69 -2 -73 -10 -38 -11 56 -11 115 1 115 6 0 10 -32 9 -77z m-959
27 c0 -22 -4 -40 -10 -40 -5 0 -10 18 -10 40 0 22 5 40 10 40 6 0 10 -18 10
-40z m30 -1 c0 -24 -4 -38 -10 -34 -5 3 -10 22 -10 41 0 19 5 34 10 34 6 0 10
-18 10 -41z m17 -11 c-2 -13 -4 -5 -4 17 -1 22 1 32 4 23 2 -10 2 -28 0 -40z
m32 25 c1 9 6 17 11 17 6 0 9 -25 9 -57 -1 -44 -3 -51 -8 -28 -3 17 -11 28
-16 25 -6 -3 -11 12 -12 35 -1 33 0 36 7 15 5 -17 8 -19 9 -7z m771 -7 c0 -19
-4 -38 -10 -41 -6 -4 -10 10 -10 34 0 23 5 41 10 41 6 0 10 -15 10 -34z m50
-7 c0 -41 -19 -56 -21 -16 -1 21 -1 21 -9 -3 -7 -22 -8 -20 -9 15 -1 34 2 41
19 42 17 2 20 -4 20 -38z m-783 -21 c-2 -13 -4 -5 -4 17 -1 22 1 32 4 23 2
-10 2 -28 0 -40z m20 5 c-3 -10 -5 -2 -5 17 0 19 2 27 5 18 2 -10 2 -26 0 -35z
m20 -30 c-2 -16 -4 -3 -4 27 0 30 2 43 4 28 2 -16 2 -40 0 -55z m32 50 c-1
-16 -5 -39 -9 -53 -6 -20 -8 -14 -9 28 -1 28 3 52 9 52 6 0 10 -12 9 -27z m18
-20 c-3 -10 -5 -2 -5 17 0 19 2 27 5 18 2 -10 2 -26 0 -35z m20 0 c-3 -10 -5
-2 -5 17 0 19 2 27 5 18 2 -10 2 -26 0 -35z m39 12 c0 -14 -3 -25 -8 -25 -4 0
-8 14 -8 32 0 36 14 30 16 -7z m384 5 c0 -16 -4 -30 -10 -30 -5 0 -10 14 -10
30 0 17 5 30 10 30 6 0 10 -13 10 -30z m27 -32 c-2 -13 -4 -3 -4 22 0 25 2 35
4 23 2 -13 2 -33 0 -45z m20 15 c-3 -10 -5 -2 -5 17 0 19 2 27 5 18 2 -10 2
-26 0 -35z m20 0 c-3 -10 -5 -2 -5 17 0 19 2 27 5 18 2 -10 2 -26 0 -35z m20
0 c-3 -10 -5 -2 -5 17 0 19 2 27 5 18 2 -10 2 -26 0 -35z m20 0 c-3 -10 -5 -2
-5 17 0 19 2 27 5 18 2 -10 2 -26 0 -35z m20 0 c-3 -10 -5 -2 -5 17 0 19 2 27
5 18 2 -10 2 -26 0 -35z m20 0 c-3 -10 -5 -2 -5 17 0 19 2 27 5 18 2 -10 2
-26 0 -35z m-490 -45 c-2 -13 -4 -3 -4 22 0 25 2 35 4 23 2 -13 2 -33 0 -45z
m63 22 c0 -29 -4 -40 -15 -40 -11 0 -15 11 -15 40 0 29 4 40 15 40 11 0 15
-11 15 -40z m60 0 c0 -29 -4 -40 -15 -40 -11 0 -15 11 -15 40 0 29 4 40 15 40
11 0 15 -11 15 -40z m60 0 c0 -29 -4 -40 -15 -40 -11 0 -15 11 -15 40 0 29 4
40 15 40 11 0 15 -11 15 -40z m60 0 c0 -29 -4 -40 -15 -40 -11 0 -15 11 -15
40 0 29 4 40 15 40 11 0 15 -11 15 -40z m37 -22 c-2 -13 -4 -3 -4 22 0 25 2
35 4 23 2 -13 2 -33 0 -45z m223 -29 c111 -13 242 -38 254 -50 6 -6 6 -13 -2
-21 -9 -9 -24 -8 -65 5 -71 22 -86 20 -22 -3 31 -11 44 -20 35 -23 -8 -3 -40
-13 -70 -23 -30 -9 -67 -30 -82 -45 -26 -25 -31 -26 -64 -16 -40 12 -40 12 -1
98 l26 56 -52 7 c-29 3 -65 6 -82 6 -16 1 -43 7 -60 15 -29 13 -27 14 35 9 36
-3 103 -9 150 -15z m-202 -11 c-4 -10 -45 -13 -163 -13 -118 0 -159 3 -162 13
-4 9 33 12 162 12 129 0 166 -3 163 -12z m-783 -80 c17 -9 62 -25 101 -36 41
-13 78 -31 90 -44 l19 -23 -22 18 c-11 10 -47 24 -79 32 -57 13 -86 13 -45 0
19 -6 19 -7 3 -38 -9 -18 -18 -34 -19 -35 -1 -2 -23 6 -50 18 -69 31 -93 56
-93 101 l0 38 57 -35 c31 -19 62 -34 67 -34 6 1 -7 10 -29 22 -45 23 -95 66
-95 82 0 5 15 -4 33 -21 17 -17 46 -37 62 -45z m1323 -7 c0 -80 -12 -96 -86
-124 -52 -21 -79 -22 -37 -2 30 14 30 14 3 9 -23 -5 -28 -3 -28 14 0 11 -7 27
-15 35 -12 13 -7 17 43 36 31 11 71 32 87 46 28 24 27 24 -16 -3 -26 -15 -76
-36 -110 -46 -35 -10 -77 -24 -93 -32 -16 -8 -30 -13 -33 -11 -8 9 47 36 114
56 39 12 93 37 120 55 26 19 49 34 50 35 0 1 1 -30 1 -68z m-554 -36 c41 -9
118 -31 173 -49 129 -44 157 -50 183 -36 16 8 20 18 16 33 -5 22 -5 22 10 2
14 -18 13 -22 -7 -37 -31 -26 -84 -22 -173 13 -43 16 -80 28 -82 26 -2 -2 35
-18 82 -36 84 -32 131 -37 177 -17 14 7 17 3 17 -27 0 -20 -5 -39 -11 -43 -8
-5 -8 -9 1 -14 9 -5 8 -9 -2 -13 -10 -3 -15 5 -16 31 -4 48 -12 55 -12 10 0
-23 -5 -38 -16 -42 -32 -12 -101 -5 -164 18 -108 39 -107 39 -80 21 18 -11 19
-14 5 -9 -111 39 -152 45 -275 41 -82 -3 -140 -10 -169 -21 -24 -9 -46 -14
-48 -12 -7 7 100 39 157 46 52 7 53 7 13 9 -41 1 -184 -39 -213 -60 -12 -8 -9
-9 10 -4 21 5 22 4 7 -5 -9 -6 -22 -8 -27 -5 -6 4 -33 -1 -61 -10 -49 -17
-114 -17 -164 -1 -11 3 -6 0 10 -8 39 -20 102 -20 155 -1 24 8 45 13 47 11 8
-8 -92 -36 -129 -36 -21 0 -53 6 -71 14 -31 12 -33 17 -36 65 -2 49 -1 52 18
42 32 -18 81 -13 159 15 40 15 71 29 69 31 -3 2 -35 -8 -72 -22 -75 -28 -132
-32 -160 -11 -16 11 -17 18 -8 37 11 23 12 23 12 3 2 -54 51 -52 213 7 160 59
319 74 462 44z m-779 -70 c39 -19 67 -35 63 -35 -19 0 -118 42 -128 55 -17 20
-16 20 65 -20z m161 10 c18 -14 18 -14 -8 -15 -27 0 -43 12 -31 24 9 9 17 8
39 -9z m972 3 c-3 -7 -15 -14 -29 -16 -23 -2 -23 -2 -5 13 24 18 39 20 34 3z
m-198 -128 c8 -5 11 -10 5 -10 -5 0 -17 5 -25 10 -8 5 -10 10 -5 10 6 0 17 -5
25 -10z m137 -25 c40 0 56 -3 46 -9 -20 -11 -125 -2 -150 13 -15 9 -12 10 12
4 17 -5 58 -8 92 -8z"/>
<path d="M2165 1550 c17 -4 39 -8 50 -8 16 0 15 2 -5 8 -14 4 -36 8 -50 8 -22
0 -22 -1 5 -8z"/>
<path d="M2405 1405 c-22 -14 -36 -25 -31 -25 10 0 76 40 76 46 0 6 -2 5 -45
-21z"/>
<path d="M1713 1453 c26 -2 67 -2 90 0 23 2 2 3 -48 3 -49 0 -68 -1 -42 -3z"/>
<path d="M1623 1443 c9 -2 23 -2 30 0 6 3 -1 5 -18 5 -16 0 -22 -2 -12 -5z"/>
<path d="M1863 1443 c9 -2 23 -2 30 0 6 3 -1 5 -18 5 -16 0 -22 -2 -12 -5z"/>
<path d="M1530 1425 c-47 -18 -27 -18 30 -1 25 8 36 15 25 15 -11 0 -36 -7
-55 -14z"/>
<path d="M1700 1412 c0 -26 4 -30 30 -34 17 -3 33 -1 36 4 4 5 12 7 20 4 18
-7 18 5 -1 30 -14 19 -15 18 -21 -5 l-7 -23 -13 28 c-7 16 -13 23 -13 15 -1
-11 -4 -11 -16 -1 -13 11 -15 8 -15 -18z"/>
<path d="M1950 1424 c25 -7 50 -13 55 -13 18 1 -59 27 -80 28 -11 0 0 -7 25
-15z"/>
<path d="M1640 1413 c0 -22 20 -55 20 -34 0 11 3 11 17 0 15 -12 16 -12 10 4
-4 10 -7 25 -7 33 0 8 -9 14 -20 14 -12 0 -20 -7 -20 -17z"/>
<path d="M1830 1400 c0 -29 1 -29 20 -13 11 10 20 23 20 30 0 7 -9 13 -20 13
-16 0 -20 -7 -20 -30z m30 10 c0 -5 -4 -10 -10 -10 -5 0 -10 5 -10 10 0 6 5
10 10 10 6 0 10 -4 10 -10z"/>
<path d="M1595 1390 l-7 -34 -13 30 c-10 21 -14 24 -14 10 -1 -16 -3 -17 -17
-5 -15 12 -16 11 -9 -11 4 -14 12 -29 18 -35 7 -7 8 -4 4 8 -4 9 -2 17 2 17 5
0 11 -5 13 -10 2 -7 14 -7 35 2 31 13 31 14 13 37 l-18 24 -7 -33z"/>
<path d="M1885 1405 c-3 -8 -7 -22 -10 -31 -4 -14 -3 -14 9 -5 11 9 15 8 20
-4 4 -11 13 -14 26 -10 13 4 20 2 21 -7 0 -7 5 0 10 16 11 39 2 47 -21 19 -25
-31 -31 -29 -23 7 4 24 2 30 -11 30 -9 0 -19 -7 -21 -15z"/>
<path d="M1480 1376 c0 -3 5 -17 12 -31 14 -31 33 -28 33 6 0 17 -6 25 -22 27
-13 2 -23 1 -23 -2z m40 -22 c0 -8 -4 -12 -10 -9 -5 3 -10 10 -10 16 0 5 5 9
10 9 6 0 10 -7 10 -16z"/>
<path d="M1997 1359 c-3 -12 -10 -18 -16 -14 -6 3 -11 2 -11 -4 0 -5 15 -13
33 -16 17 -4 35 -12 38 -17 3 -5 16 -10 27 -11 12 -1 22 -6 22 -12 0 -5 5 -3
10 5 8 13 10 12 10 -2 0 -26 29 -22 40 5 8 21 9 20 10 -8 0 -23 3 -27 10 -15
8 12 12 13 19 2 5 -9 8 -4 7 17 -1 18 -5 26 -10 21 -6 -6 -14 -2 -22 8 -11 15
-13 14 -19 -11 -4 -15 -12 -27 -17 -27 -6 0 -7 11 -4 24 7 29 -9 43 -30 25
-12 -10 -13 -9 -8 5 9 25 -11 19 -24 -6 -10 -23 -11 -23 -11 5 -1 30 -12 35
-31 12 -17 -21 -24 -12 -10 14 6 12 7 21 2 21 -6 0 -12 -9 -15 -21z"/>
<path d="M1430 1320 c0 -16 5 -30 10 -30 6 0 10 5 10 10 0 6 7 10 17 10 14 0
14 2 -2 20 -25 28 -35 25 -35 -10z"/>
<path d="M1731 1346 c2 -2 45 -6 94 -8 50 -3 79 -2 65 2 -25 8 -167 13 -159 6z"/>
<path d="M1397 1326 c-3 -8 0 -22 7 -32 11 -15 12 -13 8 14 -5 36 -7 38 -15
18z"/>
<path d="M1257 1323 c-4 -3 -7 -17 -7 -31 0 -19 4 -23 20 -19 11 3 20 0 20 -5
0 -7 5 -6 14 1 9 8 16 8 20 2 9 -14 37 -2 29 13 -3 6 -1 6 8 -1 7 -7 18 -13
24 -13 5 1 -1 10 -15 22 -14 12 -18 19 -8 15 10 -3 19 0 22 9 4 11 0 15 -16
12 -14 -2 -25 -13 -29 -28 -4 -15 -7 -18 -8 -8 -1 25 -20 32 -29 11 -10 -25
-42 -26 -42 -1 0 14 5 18 15 14 8 -3 15 -1 15 4 0 11 -23 13 -33 3z"/>
<path d="M1935 1320 c27 -12 43 -12 25 0 -8 5 -22 9 -30 9 -10 0 -8 -3 5 -9z"/>
<path d="M2217 1323 c-6 -10 10 -53 19 -53 3 0 3 7 0 16 -4 9 -1 23 5 30 9 11
8 14 -4 14 -9 0 -18 -3 -20 -7z"/>
<path d="M2235 748 c-22 -12 -34 -23 -27 -26 16 -5 51 -73 45 -89 -3 -10 3
-10 26 -2 32 11 42 29 16 29 -8 0 -15 7 -15 15 0 19 5 19 34 0 22 -15 56 -12
56 5 0 4 -11 11 -24 14 -20 5 -24 12 -22 38 1 28 -3 33 -24 35 -14 2 -43 -7
-65 -19z m61 -27 c-10 -16 -36 -13 -36 3 0 17 21 27 34 16 4 -5 5 -13 2 -19z"/>
<path d="M1177 733 c-8 -38 -31 -68 -46 -59 -6 4 -9 16 -6 27 5 13 2 19 -10
19 -24 0 -30 -28 -9 -51 28 -31 64 -21 90 24 11 20 24 34 27 30 4 -3 7 -1 7 5
0 10 -30 32 -43 32 -3 0 -7 -12 -10 -27z"/>
<path d="M1323 686 c7 -17 -13 -86 -25 -86 -4 0 -8 -4 -8 -9 0 -7 73 -31 97
-31 5 0 14 9 21 20 12 19 11 20 -28 14 -33 -5 -40 -4 -40 10 0 19 16 22 23 4
5 -16 13 -10 22 20 6 21 4 23 -14 17 -21 -6 -30 8 -12 19 14 9 41 -4 41 -20 0
-8 5 -14 10 -14 6 0 10 11 10 24 0 20 -7 25 -44 35 -57 14 -59 14 -53 -3z"/>
<path d="M2038 678 c-34 -9 -53 -28 -29 -28 9 0 26 -66 22 -87 -2 -16 -1 -16
55 -2 38 10 44 15 44 37 l0 26 -21 -23 c-22 -23 -40 -24 -47 -1 -3 9 1 11 12
7 12 -5 16 0 16 18 0 14 -4 25 -10 25 -5 0 -10 -4 -10 -10 0 -5 -4 -10 -10
-10 -5 0 -10 7 -10 16 0 12 7 15 30 12 24 -4 30 -1 28 11 -4 20 -22 22 -70 9z"/>
<path d="M1537 606 c3 -26 1 -46 -6 -50 -18 -11 -13 -23 13 -28 22 -4 23 -2
20 41 l-3 46 10 -47 c8 -33 16 -46 27 -46 10 0 28 -2 42 -6 24 -7 25 -5 27 46
0 29 6 54 12 56 19 6 1 22 -25 22 -18 0 -28 -8 -38 -31 -10 -25 -14 -28 -20
-14 -3 9 -6 25 -6 36 0 14 -7 19 -29 19 -28 0 -28 -1 -24 -44z m96 -38 c-3
-16 -9 -28 -14 -28 -12 0 -11 4 3 35 14 31 18 29 11 -7z"/>
<path d="M1823 642 c-39 -3 -57 -15 -34 -24 12 -4 17 -69 7 -86 -11 -18 75
-16 100 2 16 12 17 18 7 34 -6 11 -9 29 -6 40 6 26 -19 38 -74 34z m47 -31 c0
-5 -7 -12 -16 -15 -22 -9 -24 -8 -24 9 0 8 9 15 20 15 11 0 20 -4 20 -9z m0
-57 c0 -8 -6 -14 -14 -14 -18 0 -29 27 -13 33 16 6 27 -1 27 -19z"/>
</g>
</svg>
